#!OML:ASF F:\VICON\USERDATA\INSTALL\rory3\rory3.ASF
:FULLY-SPECIFIED
:DEGREES
10
root 0.8022670000000001 17.7596 -13.00439999999994 0.4905270000000046 -7.93893 -6.968840000000011
lfemur -24.383500000000023 -6.381010000000004 -9.888070000000004
ltibia 9.03745000000006
lfoot -4.288260000000005 4.69096999999999
ltoes 1.3440599999999994
rfemur 8.655520000000003 7.340070000000004 33.8701
rtibia 26.220999999999982
rfoot -19.91489999999998 -0.7112059999999865
rtoes -0.19045999999999497
lowerback 11.127500000000001 2.5276999999999967 6.527249999999997
upperback -0.194546 4.32906 1.8653799999999996
thorax -6.117189999999998 1.9470599999999982 -2.388710000000003
lowerneck -16.711 -3.2733200000000005 -1.3659199999999996
upperneck 21.3926 -4.18945 -0.026376200000000516
head 9.54964 -2.06259 -0.32819699999999963
lclavicle 1.6378000000000002e-14 -4.572049999999994e-15
lhumerus -37.933600000000006 11.9134 78.2971
lradius 20.099999999999998
lwrist 0.721893000000005
lhand -26.056499999999996 19.1732
lfingers 7.12502
lthumb 0.4912159999999952 49.1524
rclavicle 1.6378000000000002e-14 -4.572049999999994e-15
rhumerus -19.486499999999985 -8.71364999999999 -82.6979
rradius 32.6715
rwrist -1.522839999999992
rhand -19.4449 22.7961
rfingers 7.12502
rthumb 6.8756999999999975 -7.0722700000000005
11
root 0.8398740000000006 17.7147 -12.366500000000013 0.1158409999999992 -7.688919999999989 -6.706100000000001
lfemur -25.396800000000034 -5.794779999999996 -11.492599999999992
ltibia 14.576200000000014
lfoot -1.0892399999999949 3.616110000000008
ltoes -4.7758800000000035
rfemur 9.397630000000031 7.274999999999995 33.486099999999986
rtibia 29.225299999999983
rfoot -18.197399999999995 -0.011481200000000413
rtoes -3.462570000000009
lowerback 11.188700000000003 2.3959299999999972 6.544410000000003
upperback -0.1758290000000004 4.153770000000002 1.7605900000000005
thorax -6.1372599999999995 1.8586900000000026 -2.485180000000008
lowerneck -16.8924 -3.2928000000000006 -1.29242
upperneck 21.4654 -4.213390000000001 -0.11675599999999997
head 9.60503 -2.0770800000000005 -0.3789779999999993
lclavicle 6.410809999999999e-14 1.9729400000000002e-14
lhumerus -39.037299999999995 12.085800000000013 78.0349
lradius 20.272399999999994
lwrist 0.4296220000000055
lhand -26.2259 18.205499999999997
lfingers 7.12502
lthumb 0.3275639999999962 48.185
rclavicle 6.410809999999999e-14 1.9729400000000002e-14
rhumerus -19.5251 -8.896329999999992 -82.7466
rradius 32.68729999999999
rwrist -1.185579999999987
rhand -19.397200000000005 23.0633
rfingers 7.12502
rthumb 6.92177 -6.8035499999999995
12
root 0.8632709999999989 17.7663 -11.702800000000067 -0.6350049999999972 -7.209519999999998 -5.697049999999997
lfemur -25.95390000000002 -5.108329999999996 -13.741299999999995
ltibia 20.19619999999999
lfoot -0.07782069999999752 1.1279799999999898
ltoes -8.879229999999998
rfemur 10.10899999999998 6.710900000000002 32.221100000000014
rtibia 32.58469999999999
rfoot -14.71530000000001 1.1251900000000017
rtoes -6.824589999999983
lowerback 11.015699999999999 2.3400899999999982 5.587259999999988
upperback -0.024965700000000146 3.9246700000000003 1.59875
thorax -5.948159999999999 1.7832500000000022 -2.075719999999994
lowerneck -16.6908 -3.31368 -1.4369100000000001
upperneck 21.7335 -4.2081800000000005 -0.12270700000000057
head 9.66553 -2.0871 -0.35608799999999907
lclavicle -6.0877799999999965e-15 -2.3854199999999984e-15
lhumerus -39.36590000000001 12.75580000000002 77.6779
lradius 19.51179999999999
lwrist -0.1621130000000086
lhand -26.160000000000004 19.1323
lfingers 7.12502
lthumb 0.3912559999999945 49.1117
rclavicle -6.0877799999999965e-15 -2.3854199999999984e-15
rhumerus -20.020699999999994 -10.023200000000003 -82.4704
rradius 32.4411
rwrist -0.5920370000000044
rhand -18.945900000000005 23.5373
rfingers 7.12502
rthumb 7.357369999999999 -6.314750000000002
13
root 0.8793119999999992 17.798 -11.033299999999958 -1.6266100000000017 -6.263589999999998 -3.996609999999995
lfemur -24.828999999999994 -5.441749999999995 -16.359299999999994
ltibia 23.104099999999985
lfoot 0.6715229999999917 -2.298700000000001
ltoes -0.8693660000000021
rfemur 9.249560000000002 5.223780000000001 29.82800000000001
rtibia 38.3705
rfoot -8.24586 3.5491099999999927
rtoes -4.758849999999999
lowerback 11.0896 2.281350000000005 4.033460000000003
upperback 0.15524600000000002 3.611950000000005 1.0493300000000005
thorax -5.8769800000000005 1.6725900000000018 -1.7375899999999955
lowerneck -16.2044 -3.613410000000001 -1.1687599999999985
upperneck 21.5376 -4.69286 -0.1705730000000002
head 9.50028 -2.2991300000000003 -0.46757099999999957
lclavicle 1.564649999999998e-14 1.5405800000000036e-15
lhumerus -38.904700000000005 12.79349999999999 77.2804
lradius 18.847600000000007
lwrist -1.427459999999991
lhand -25.08170000000001 24.436199999999992
lfingers 7.12502
lthumb 1.4326299999999996 54.4111
rclavicle 1.564649999999998e-14 1.5405800000000036e-15
rhumerus -20.88130000000001 -11.868400000000005 -82.3681
rradius 32.038000000000004
rwrist -0.43049700000000035
rhand -19.280299999999997 23.5787
rfingers 7.12502
rthumb 7.034570000000002 -6.284429999999999
14
root 0.9118449999999992 17.8295 -10.36649999999997 -2.37706 -5.660840000000001 -3.1658800000000022
lfemur -23.47170000000002 -4.514809999999996 -18.334300000000002
ltibia 25.96390000000001
lfoot -0.015266900000004746 -2.67389
ltoes -1.2213099999999957
rfemur 7.069620000000015 3.54463 27.759600000000002
rtibia 44.71139999999999
rfoot 3.2659400000000165 5.8039999999999905
rtoes 1.8840400000000002
lowerback 11.169100000000004 2.255599999999995 3.5035400000000028
upperback 0.05575680000000004 3.5052099999999964 0.8476370000000006
thorax -6.0508299999999995 1.6277499999999976 -1.643379999999997
lowerneck -15.7475 -3.746049999999998 -1.4469500000000002
upperneck 22.127099999999995 -4.851660000000001 -0.04412930000000048
head 9.63473 -2.380659999999999 -0.3973079999999995
lclavicle 5.362529999999994e-15 -8.274409999999999e-15
lhumerus -39.047000000000004 13.297899999999988 76.7235
lradius 17.9638
lwrist -2.0312599999999996
lhand -25.922599999999996 20.5235
lfingers 7.12502
lthumb 0.6204939999999959 50.5023
rclavicle 5.362529999999994e-15 -8.274409999999999e-15
rhumerus -22.807800000000007 -13.179499999999994 -81.8343
rradius 32.074400000000004
rwrist -0.6045049999999965
rhand -19.8026 22.4451
rfingers 7.12502
rthumb 6.530380000000002 -7.43417
15
root 0.9621770000000008 17.8813 -9.72935000000006 -2.46502 -5.793730000000007 -2.8339300000000023
lfemur -22.432599999999987 -3.918759999999998 -19.5742
ltibia 28.515700000000006
lfoot -2.2248 -2.8417
ltoes 2.1229000000000027
rfemur 3.145050000000017 3.053560000000001 26.2995
rtibia 51.33970000000001
rfoot 15.690900000000033 6.37069999999999
rtoes 7.003740000000004
lowerback 10.556800000000003 2.3938100000000047 3.669270000000005
upperback 0.2452640000000001 3.664979999999994 0.6676789999999997
thorax -5.47619 1.7156699999999983 -1.9106599999999947
lowerneck -16.3947 -3.6420200000000005 -1.1627300000000003
upperneck 22.611400000000003 -4.759459999999998 -0.12736000000000092
head 9.91699 -2.3163599999999995 -0.481662999999999
lclavicle -3.225899999999996e-14 -1.1380400000000003e-14
lhumerus -38.42699999999999 13.236699999999992 76.7288
lradius 18.697200000000013
lwrist -1.9082599999999879
lhand -25.2811 18.6625
lfingers 7.12502
lthumb 1.2400699999999967 48.6387
rclavicle -3.225899999999996e-14 -1.1380400000000003e-14
rhumerus -23.566999999999997 -15.160900000000003 -81.4415
rradius 31.131900000000005
rwrist 0.2671519999999985
rhand -18.8424 23.2022
rfingers 7.12502
rthumb 7.457250000000002 -6.646339999999999
